<svg xmlns="http://www.w3.org/2000/svg" width="89" height="89" viewBox="0 0 89 89">
  <g id="Rabbit_icon_OFF" transform="translate(-0.477 -0.477)">
    <rect id="Rect치ngulo_64" data-name="Rect치ngulo 64" width="89" height="89" transform="translate(0.477 0.477)" fill="none"/>
    <g id="Grupo_750" data-name="Grupo 750" transform="translate(10.576 12.802)">
      <path id="Uni칩n_10" data-name="Uni칩n 10" d="M51.375,5.392c5.771,0,10.655,4.392,11.886,10.449.971,4.784-4.076,8.951-9.148,10.122,2.545,3.624,2.748,8.01,1.918,12.113a38.529,38.529,0,0,0,.8,18.874l.032.106a.5.5,0,0,1-.479.645.49.49,0,0,1-.309-.112l-7.99-6.418c.2-11.206-8.071-13.672-13.595-13.746h-.005a.316.316,0,0,0-.066.624C41.4,39.7,45.383,42.922,44.981,52.713c.767.455,4.289,3.488,6.045,5.014a.5.5,0,0,1-.327.872H8.829A12.35,12.35,0,0,1,6.252,45.5l.608-1.538,6.161,6.661c.335-15.895,10.4-28.5,24.028-30.231a4.48,4.48,0,0,0,3.877-4.507c0-.016,0-.032,0-.047a10.423,10.423,0,0,1,.439-3,.407.407,0,0,0-.391-.521.418.418,0,0,0-.12.018,45.451,45.451,0,0,1-13.045,1.668c-22.69,0-22.071-6.144-22.071-6.144S17.917,5.392,27.774,5.392H28c6.308.025,13.465.662,17.825,1.121a2.414,2.414,0,0,0,.249.013A2.556,2.556,0,0,0,47.117,6.3a10.4,10.4,0,0,1,4.258-.907m0-5.392a15.711,15.711,0,0,0-5.734,1.073C40.819.58,34.084.024,28.022,0h-.248C17.493,0,5.181,2.477,4.662,2.582L.371,7.327a7.708,7.708,0,0,0,2.183,5.909c3.4,3.763,10.513,5.773,21.68,6.115a32.646,32.646,0,0,0-8.4,7.493,37.573,37.573,0,0,0-6.821,13.8l-7.162,1.34-.608,1.538a17.787,17.787,0,0,0,3.7,18.813l3.889,1.657H50.7a5.9,5.9,0,0,0,3.642-1.268,5.889,5.889,0,0,0,7.683-7.237l-.032-.105a33.284,33.284,0,0,1-.677-16.236,23.228,23.228,0,0,0-.077-10.329c5.013-3.031,8.5-8.171,7.307-14.048A19.078,19.078,0,0,0,62.594,4.307,16.945,16.945,0,0,0,51.375,0" transform="translate(0 0)" fill="#ededed"/>
    </g>
  </g>
</svg>
