<svg xmlns="http://www.w3.org/2000/svg" width="1593.805" height="21.158" viewBox="0 0 1593.805 21.158">
  <g id="Line" transform="translate(-55 -415.956)">
    <g id="Grupo_54" data-name="Grupo 54" transform="translate(1374.844 415.956)">
      <path id="Trazado_19" data-name="Trazado 19" d="M0,21.158H1.712V19.447H0Zm15.558,0h1.711V19.447H15.558ZM0,17.269H1.712V15.558H0Zm15.558,0h1.711V15.558H15.558ZM0,13.379H1.712V11.668H0Zm11.668,0h1.712V11.668H11.668Zm3.89,0h1.711V11.668H15.558ZM0,9.49H1.712V7.779H0Zm7.779,0H9.49V7.779H7.779Zm7.779,0h1.711V7.779H15.558ZM0,5.6H1.712V3.889H0Zm3.889,0H5.6V3.889H3.889Zm11.668,0h1.711V3.889H15.558ZM0,1.711H1.712V0H0Zm15.558,0h1.711V0H15.558Z" fill="#fff"/>
      <path id="Trazado_20" data-name="Trazado 20" d="M49.708,21.158H51.42V19.447H49.708Zm3.889,0h1.711V19.447H53.6Zm3.89,0H59.2V19.447H57.487Zm3.888,0h1.712V19.447H61.376Zm3.89,0h1.712V19.447H65.266ZM49.708,17.269H51.42V15.558H49.708Zm0-3.889H51.42V11.668H49.708Zm0-3.889H51.42V7.779H49.708Zm3.889,0h1.711V7.779H53.6Zm3.89,0H59.2V7.779H57.487Zm3.888,0h1.712V7.779H61.376ZM49.708,5.6H51.42V3.889H49.708Zm0-3.889H51.42V0H49.708Zm3.889,0h1.711V0H53.6Zm3.89,0H59.2V0H57.487Zm3.888,0h1.712V0H61.376Zm3.89,0h1.712V0H65.266Z" transform="translate(-26.372)" fill="#fff"/>
      <path id="Trazado_21" data-name="Trazado 21" d="M99.417,21.158h1.712V19.447H99.417Zm15.557,0h1.712V19.447h-1.712ZM99.417,17.269h1.712V15.558H99.417Zm11.668,0H112.8V15.558h-1.712ZM99.417,13.379h1.712V11.668H99.417Zm3.889,0h1.712V11.668h-1.712Zm3.89,0h1.711V11.668H107.2Zm3.888,0H112.8V11.668h-1.712ZM99.417,9.49h1.712V7.779H99.417Zm15.557,0h1.712V7.779h-1.712ZM99.417,5.6h1.712V3.889H99.417Zm15.557,0h1.712V3.889h-1.712ZM99.417,1.711h1.712V0H99.417Zm3.889,0h1.712V0h-1.712Zm3.89,0h1.711V0H107.2Zm3.888,0H112.8V0h-1.712Z" transform="translate(-52.745)" fill="#fff"/>
      <path id="Trazado_22" data-name="Trazado 22" d="M149.125,21.158h1.712V19.447h-1.712Zm3.889,0h1.712V19.447h-1.712Zm3.889,0h1.711V19.447H156.9Zm3.889,0H162.5V19.447h-1.711Zm-11.668-3.889h1.712V15.558h-1.712Zm15.557,0h1.712V15.558h-1.712Zm-15.557-3.889h1.712V11.668h-1.712Zm15.557,0h1.712V11.668h-1.712ZM149.125,9.49h1.712V7.779h-1.712Zm15.557,0h1.712V7.779h-1.712ZM149.125,5.6h1.712V3.889h-1.712Zm15.557,0h1.712V3.889h-1.712ZM149.125,1.711h1.712V0h-1.712Zm3.889,0h1.712V0h-1.712Zm3.889,0h1.711V0H156.9Zm3.889,0H162.5V0h-1.711Z" transform="translate(-79.118)" fill="#fff"/>
      <path id="Trazado_23" data-name="Trazado 23" d="M206.612,21.158h1.712V19.447h-1.712Zm0-3.889h1.712V15.558h-1.712Zm0-3.889h1.712V11.668h-1.712ZM202.722,9.49h1.712V7.779h-1.712Zm7.779,0h1.711V7.779H210.5ZM198.833,5.6h1.711V3.889h-1.711Zm15.557,0H216.1V3.889H214.39ZM198.833,1.711h1.711V0h-1.711Zm15.557,0H216.1V0H214.39Z" transform="translate(-105.49)" fill="#fff"/>
      <path id="Trazado_24" data-name="Trazado 24" d="M298.25,21.158h1.711V19.447H298.25Zm0-3.889h1.711V15.558H298.25Zm0-3.889h1.711V11.668H298.25Zm3.889,0h1.711V11.668h-1.711Zm3.889,0h1.712V11.668h-1.712Zm3.889,0h1.712V11.668h-1.712ZM298.25,9.49h1.711V7.779H298.25Zm15.558,0h1.711V7.779h-1.711ZM298.25,5.6h1.711V3.889H298.25Zm15.558,0h1.711V3.889h-1.711ZM298.25,1.711h1.711V0H298.25Zm3.889,0h1.711V0h-1.711Zm3.889,0h1.712V0h-1.712Zm3.889,0h1.712V0h-1.712Z" transform="translate(-158.236)" fill="#fff"/>
      <path id="Trazado_25" data-name="Trazado 25" d="M347.958,21.158h1.712V19.447h-1.712Zm3.889,0h1.711V19.447h-1.711Zm3.889,0h1.712V19.447h-1.712Zm3.889,0h1.712V19.447h-1.712Zm3.89,0h1.711V19.447h-1.711Zm-15.558-3.889h1.712V15.558h-1.712Zm0-3.889h1.712V11.668h-1.712Zm0-3.889h1.712V7.779h-1.712Zm3.889,0h1.711V7.779h-1.711Zm3.889,0h1.712V7.779h-1.712Zm3.889,0h1.712V7.779h-1.712ZM347.958,5.6h1.712V3.889h-1.712Zm0-3.889h1.712V0h-1.712Zm3.889,0h1.711V0h-1.711Zm3.889,0h1.712V0h-1.712Zm3.889,0h1.712V0h-1.712Zm3.89,0h1.711V0h-1.711Z" transform="translate(-184.608)" fill="#fff"/>
      <path id="Trazado_26" data-name="Trazado 26" d="M401.555,21.158h1.711V19.447h-1.711Zm3.89,0h1.711V19.447h-1.711Zm3.888,0h1.712V19.447h-1.712Zm-11.668-3.889h1.712V15.558h-1.712Zm15.558,0h1.712V15.558h-1.712Zm-15.558-3.889h1.712V11.668h-1.712Zm15.558,0h1.712V11.668h-1.712ZM397.666,9.49h1.712V7.779h-1.712Zm15.558,0h1.712V7.779h-1.712ZM397.666,5.6h1.712V3.889h-1.712Zm15.558,0h1.712V3.889h-1.712ZM401.555,1.711h1.711V0h-1.711Zm3.89,0h1.711V0h-1.711Zm3.888,0h1.712V0h-1.712Z" transform="translate(-210.981)" fill="#fff"/>
      <path id="Trazado_27" data-name="Trazado 27" d="M447.375,21.158h1.712V19.447h-1.712Zm0-3.889h1.712V15.558h-1.712Zm0-3.889h1.712V11.668h-1.712Zm3.889,0h1.712V11.668h-1.712Zm3.889,0h1.711V11.668h-1.711Zm3.889,0h1.712V11.668h-1.712ZM447.375,9.49h1.712V7.779h-1.712Zm15.557,0h1.712V7.779h-1.712ZM447.375,5.6h1.712V3.889h-1.712Zm15.557,0h1.712V3.889h-1.712ZM447.375,1.711h1.712V0h-1.712Zm3.889,0h1.712V0h-1.712Zm3.889,0h1.711V0h-1.711Zm3.889,0h1.712V0h-1.712Z" transform="translate(-237.354)" fill="#fff"/>
      <path id="Trazado_28" data-name="Trazado 28" d="M505.368,21.158h1.712V19.447h-1.712Zm3.889,0h1.711V19.447h-1.711Zm3.889,0h1.711V19.447h-1.711Zm3.889,0h1.712V19.447h-1.712Zm-11.668-3.889h1.712V15.558h-1.712Zm0-3.889h1.712V11.668h-1.712Zm0-3.889h1.712V7.779h-1.712Zm0-3.89h1.712V3.889h-1.712Zm0-3.889h1.712V0h-1.712Z" transform="translate(-268.122)" fill="#fff"/>
      <path id="Trazado_29" data-name="Trazado 29" d="M546.791,21.158H548.5V19.447h-1.711Zm3.889,0h1.712V19.447H550.68Zm3.889,0h1.712V19.447H554.57Zm3.889,0h1.711V19.447h-1.711Zm3.889,0h1.712V19.447h-1.712Zm-15.557-3.889H548.5V15.558h-1.711Zm0-3.889H548.5V11.668h-1.711Zm0-3.889H548.5V7.779h-1.711Zm3.889,0h1.712V7.779H550.68Zm3.889,0h1.712V7.779H554.57Zm3.889,0h1.711V7.779h-1.711ZM546.791,5.6H548.5V3.889h-1.711Zm0-3.889H548.5V0h-1.711Zm3.889,0h1.712V0H550.68Zm3.889,0h1.712V0H554.57Zm3.889,0h1.711V0h-1.711Zm3.889,0h1.712V0h-1.712Z" transform="translate(-290.099)" fill="#fff"/>
    </g>
    <g id="Grupo_53" data-name="Grupo 53" transform="translate(1044.883 415.956)">
      <path id="Trazado_19-2" data-name="Trazado 19" d="M0,21.158H1.712V19.447H0Zm15.558,0h1.711V19.447H15.558ZM0,17.269H1.712V15.558H0Zm15.558,0h1.711V15.558H15.558ZM0,13.379H1.712V11.668H0Zm11.668,0h1.712V11.668H11.668Zm3.89,0h1.711V11.668H15.558ZM0,9.49H1.712V7.779H0Zm7.779,0H9.49V7.779H7.779Zm7.779,0h1.711V7.779H15.558ZM0,5.6H1.712V3.889H0Zm3.889,0H5.6V3.889H3.889Zm11.668,0h1.711V3.889H15.558ZM0,1.711H1.712V0H0Zm15.558,0h1.711V0H15.558Z" fill="#fff"/>
      <path id="Trazado_20-2" data-name="Trazado 20" d="M49.708,21.158H51.42V19.447H49.708Zm3.889,0h1.711V19.447H53.6Zm3.89,0H59.2V19.447H57.487Zm3.888,0h1.712V19.447H61.376Zm3.89,0h1.712V19.447H65.266ZM49.708,17.269H51.42V15.558H49.708Zm0-3.889H51.42V11.668H49.708Zm0-3.889H51.42V7.779H49.708Zm3.889,0h1.711V7.779H53.6Zm3.89,0H59.2V7.779H57.487Zm3.888,0h1.712V7.779H61.376ZM49.708,5.6H51.42V3.889H49.708Zm0-3.889H51.42V0H49.708Zm3.889,0h1.711V0H53.6Zm3.89,0H59.2V0H57.487Zm3.888,0h1.712V0H61.376Zm3.89,0h1.712V0H65.266Z" transform="translate(-26.372)" fill="#fff"/>
      <path id="Trazado_21-2" data-name="Trazado 21" d="M99.417,21.158h1.712V19.447H99.417Zm15.557,0h1.712V19.447h-1.712ZM99.417,17.269h1.712V15.558H99.417Zm11.668,0H112.8V15.558h-1.712ZM99.417,13.379h1.712V11.668H99.417Zm3.889,0h1.712V11.668h-1.712Zm3.89,0h1.711V11.668H107.2Zm3.888,0H112.8V11.668h-1.712ZM99.417,9.49h1.712V7.779H99.417Zm15.557,0h1.712V7.779h-1.712ZM99.417,5.6h1.712V3.889H99.417Zm15.557,0h1.712V3.889h-1.712ZM99.417,1.711h1.712V0H99.417Zm3.889,0h1.712V0h-1.712Zm3.89,0h1.711V0H107.2Zm3.888,0H112.8V0h-1.712Z" transform="translate(-52.745)" fill="#fff"/>
      <path id="Trazado_22-2" data-name="Trazado 22" d="M149.125,21.158h1.712V19.447h-1.712Zm3.889,0h1.712V19.447h-1.712Zm3.889,0h1.711V19.447H156.9Zm3.889,0H162.5V19.447h-1.711Zm-11.668-3.889h1.712V15.558h-1.712Zm15.557,0h1.712V15.558h-1.712Zm-15.557-3.889h1.712V11.668h-1.712Zm15.557,0h1.712V11.668h-1.712ZM149.125,9.49h1.712V7.779h-1.712Zm15.557,0h1.712V7.779h-1.712ZM149.125,5.6h1.712V3.889h-1.712Zm15.557,0h1.712V3.889h-1.712ZM149.125,1.711h1.712V0h-1.712Zm3.889,0h1.712V0h-1.712Zm3.889,0h1.711V0H156.9Zm3.889,0H162.5V0h-1.711Z" transform="translate(-79.118)" fill="#fff"/>
      <path id="Trazado_23-2" data-name="Trazado 23" d="M206.612,21.158h1.712V19.447h-1.712Zm0-3.889h1.712V15.558h-1.712Zm0-3.889h1.712V11.668h-1.712ZM202.722,9.49h1.712V7.779h-1.712Zm7.779,0h1.711V7.779H210.5ZM198.833,5.6h1.711V3.889h-1.711Zm15.557,0H216.1V3.889H214.39ZM198.833,1.711h1.711V0h-1.711Zm15.557,0H216.1V0H214.39Z" transform="translate(-105.49)" fill="#fff"/>
      <path id="Trazado_24-2" data-name="Trazado 24" d="M298.25,21.158h1.711V19.447H298.25Zm0-3.889h1.711V15.558H298.25Zm0-3.889h1.711V11.668H298.25Zm3.889,0h1.711V11.668h-1.711Zm3.889,0h1.712V11.668h-1.712Zm3.889,0h1.712V11.668h-1.712ZM298.25,9.49h1.711V7.779H298.25Zm15.558,0h1.711V7.779h-1.711ZM298.25,5.6h1.711V3.889H298.25Zm15.558,0h1.711V3.889h-1.711ZM298.25,1.711h1.711V0H298.25Zm3.889,0h1.711V0h-1.711Zm3.889,0h1.712V0h-1.712Zm3.889,0h1.712V0h-1.712Z" transform="translate(-158.236)" fill="#fff"/>
      <path id="Trazado_25-2" data-name="Trazado 25" d="M347.958,21.158h1.712V19.447h-1.712Zm3.889,0h1.711V19.447h-1.711Zm3.889,0h1.712V19.447h-1.712Zm3.889,0h1.712V19.447h-1.712Zm3.89,0h1.711V19.447h-1.711Zm-15.558-3.889h1.712V15.558h-1.712Zm0-3.889h1.712V11.668h-1.712Zm0-3.889h1.712V7.779h-1.712Zm3.889,0h1.711V7.779h-1.711Zm3.889,0h1.712V7.779h-1.712Zm3.889,0h1.712V7.779h-1.712ZM347.958,5.6h1.712V3.889h-1.712Zm0-3.889h1.712V0h-1.712Zm3.889,0h1.711V0h-1.711Zm3.889,0h1.712V0h-1.712Zm3.889,0h1.712V0h-1.712Zm3.89,0h1.711V0h-1.711Z" transform="translate(-184.608)" fill="#fff"/>
      <path id="Trazado_26-2" data-name="Trazado 26" d="M401.555,21.158h1.711V19.447h-1.711Zm3.89,0h1.711V19.447h-1.711Zm3.888,0h1.712V19.447h-1.712Zm-11.668-3.889h1.712V15.558h-1.712Zm15.558,0h1.712V15.558h-1.712Zm-15.558-3.889h1.712V11.668h-1.712Zm15.558,0h1.712V11.668h-1.712ZM397.666,9.49h1.712V7.779h-1.712Zm15.558,0h1.712V7.779h-1.712ZM397.666,5.6h1.712V3.889h-1.712Zm15.558,0h1.712V3.889h-1.712ZM401.555,1.711h1.711V0h-1.711Zm3.89,0h1.711V0h-1.711Zm3.888,0h1.712V0h-1.712Z" transform="translate(-210.981)" fill="#fff"/>
      <path id="Trazado_27-2" data-name="Trazado 27" d="M447.375,21.158h1.712V19.447h-1.712Zm0-3.889h1.712V15.558h-1.712Zm0-3.889h1.712V11.668h-1.712Zm3.889,0h1.712V11.668h-1.712Zm3.889,0h1.711V11.668h-1.711Zm3.889,0h1.712V11.668h-1.712ZM447.375,9.49h1.712V7.779h-1.712Zm15.557,0h1.712V7.779h-1.712ZM447.375,5.6h1.712V3.889h-1.712Zm15.557,0h1.712V3.889h-1.712ZM447.375,1.711h1.712V0h-1.712Zm3.889,0h1.712V0h-1.712Zm3.889,0h1.711V0h-1.711Zm3.889,0h1.712V0h-1.712Z" transform="translate(-237.354)" fill="#fff"/>
      <path id="Trazado_28-2" data-name="Trazado 28" d="M505.368,21.158h1.712V19.447h-1.712Zm3.889,0h1.711V19.447h-1.711Zm3.889,0h1.711V19.447h-1.711Zm3.889,0h1.712V19.447h-1.712Zm-11.668-3.889h1.712V15.558h-1.712Zm0-3.889h1.712V11.668h-1.712Zm0-3.889h1.712V7.779h-1.712Zm0-3.89h1.712V3.889h-1.712Zm0-3.889h1.712V0h-1.712Z" transform="translate(-268.122)" fill="#fff"/>
      <path id="Trazado_29-2" data-name="Trazado 29" d="M546.791,21.158H548.5V19.447h-1.711Zm3.889,0h1.712V19.447H550.68Zm3.889,0h1.712V19.447H554.57Zm3.889,0h1.711V19.447h-1.711Zm3.889,0h1.712V19.447h-1.712Zm-15.557-3.889H548.5V15.558h-1.711Zm0-3.889H548.5V11.668h-1.711Zm0-3.889H548.5V7.779h-1.711Zm3.889,0h1.712V7.779H550.68Zm3.889,0h1.712V7.779H554.57Zm3.889,0h1.711V7.779h-1.711ZM546.791,5.6H548.5V3.889h-1.711Zm0-3.889H548.5V0h-1.711Zm3.889,0h1.712V0H550.68Zm3.889,0h1.712V0H554.57Zm3.889,0h1.711V0h-1.711Zm3.889,0h1.712V0h-1.712Z" transform="translate(-290.099)" fill="#fff"/>
    </g>
    <g id="Grupo_55" data-name="Grupo 55" transform="translate(714.922 415.956)">
      <path id="Trazado_19-3" data-name="Trazado 19" d="M0,21.158H1.712V19.447H0Zm15.558,0h1.711V19.447H15.558ZM0,17.269H1.712V15.558H0Zm15.558,0h1.711V15.558H15.558ZM0,13.379H1.712V11.668H0Zm11.668,0h1.712V11.668H11.668Zm3.89,0h1.711V11.668H15.558ZM0,9.49H1.712V7.779H0Zm7.779,0H9.49V7.779H7.779Zm7.779,0h1.711V7.779H15.558ZM0,5.6H1.712V3.889H0Zm3.889,0H5.6V3.889H3.889Zm11.668,0h1.711V3.889H15.558ZM0,1.711H1.712V0H0Zm15.558,0h1.711V0H15.558Z" fill="#fff"/>
      <path id="Trazado_20-3" data-name="Trazado 20" d="M49.708,21.158H51.42V19.447H49.708Zm3.889,0h1.711V19.447H53.6Zm3.89,0H59.2V19.447H57.487Zm3.888,0h1.712V19.447H61.376Zm3.89,0h1.712V19.447H65.266ZM49.708,17.269H51.42V15.558H49.708Zm0-3.889H51.42V11.668H49.708Zm0-3.889H51.42V7.779H49.708Zm3.889,0h1.711V7.779H53.6Zm3.89,0H59.2V7.779H57.487Zm3.888,0h1.712V7.779H61.376ZM49.708,5.6H51.42V3.889H49.708Zm0-3.889H51.42V0H49.708Zm3.889,0h1.711V0H53.6Zm3.89,0H59.2V0H57.487Zm3.888,0h1.712V0H61.376Zm3.89,0h1.712V0H65.266Z" transform="translate(-26.372)" fill="#fff"/>
      <path id="Trazado_21-3" data-name="Trazado 21" d="M99.417,21.158h1.712V19.447H99.417Zm15.557,0h1.712V19.447h-1.712ZM99.417,17.269h1.712V15.558H99.417Zm11.668,0H112.8V15.558h-1.712ZM99.417,13.379h1.712V11.668H99.417Zm3.889,0h1.712V11.668h-1.712Zm3.89,0h1.711V11.668H107.2Zm3.888,0H112.8V11.668h-1.712ZM99.417,9.49h1.712V7.779H99.417Zm15.557,0h1.712V7.779h-1.712ZM99.417,5.6h1.712V3.889H99.417Zm15.557,0h1.712V3.889h-1.712ZM99.417,1.711h1.712V0H99.417Zm3.889,0h1.712V0h-1.712Zm3.89,0h1.711V0H107.2Zm3.888,0H112.8V0h-1.712Z" transform="translate(-52.745)" fill="#fff"/>
      <path id="Trazado_22-3" data-name="Trazado 22" d="M149.125,21.158h1.712V19.447h-1.712Zm3.889,0h1.712V19.447h-1.712Zm3.889,0h1.711V19.447H156.9Zm3.889,0H162.5V19.447h-1.711Zm-11.668-3.889h1.712V15.558h-1.712Zm15.557,0h1.712V15.558h-1.712Zm-15.557-3.889h1.712V11.668h-1.712Zm15.557,0h1.712V11.668h-1.712ZM149.125,9.49h1.712V7.779h-1.712Zm15.557,0h1.712V7.779h-1.712ZM149.125,5.6h1.712V3.889h-1.712Zm15.557,0h1.712V3.889h-1.712ZM149.125,1.711h1.712V0h-1.712Zm3.889,0h1.712V0h-1.712Zm3.889,0h1.711V0H156.9Zm3.889,0H162.5V0h-1.711Z" transform="translate(-79.118)" fill="#fff"/>
      <path id="Trazado_23-3" data-name="Trazado 23" d="M206.612,21.158h1.712V19.447h-1.712Zm0-3.889h1.712V15.558h-1.712Zm0-3.889h1.712V11.668h-1.712ZM202.722,9.49h1.712V7.779h-1.712Zm7.779,0h1.711V7.779H210.5ZM198.833,5.6h1.711V3.889h-1.711Zm15.557,0H216.1V3.889H214.39ZM198.833,1.711h1.711V0h-1.711Zm15.557,0H216.1V0H214.39Z" transform="translate(-105.49)" fill="#fff"/>
      <path id="Trazado_24-3" data-name="Trazado 24" d="M298.25,21.158h1.711V19.447H298.25Zm0-3.889h1.711V15.558H298.25Zm0-3.889h1.711V11.668H298.25Zm3.889,0h1.711V11.668h-1.711Zm3.889,0h1.712V11.668h-1.712Zm3.889,0h1.712V11.668h-1.712ZM298.25,9.49h1.711V7.779H298.25Zm15.558,0h1.711V7.779h-1.711ZM298.25,5.6h1.711V3.889H298.25Zm15.558,0h1.711V3.889h-1.711ZM298.25,1.711h1.711V0H298.25Zm3.889,0h1.711V0h-1.711Zm3.889,0h1.712V0h-1.712Zm3.889,0h1.712V0h-1.712Z" transform="translate(-158.236)" fill="#fff"/>
      <path id="Trazado_25-3" data-name="Trazado 25" d="M347.958,21.158h1.712V19.447h-1.712Zm3.889,0h1.711V19.447h-1.711Zm3.889,0h1.712V19.447h-1.712Zm3.889,0h1.712V19.447h-1.712Zm3.89,0h1.711V19.447h-1.711Zm-15.558-3.889h1.712V15.558h-1.712Zm0-3.889h1.712V11.668h-1.712Zm0-3.889h1.712V7.779h-1.712Zm3.889,0h1.711V7.779h-1.711Zm3.889,0h1.712V7.779h-1.712Zm3.889,0h1.712V7.779h-1.712ZM347.958,5.6h1.712V3.889h-1.712Zm0-3.889h1.712V0h-1.712Zm3.889,0h1.711V0h-1.711Zm3.889,0h1.712V0h-1.712Zm3.889,0h1.712V0h-1.712Zm3.89,0h1.711V0h-1.711Z" transform="translate(-184.608)" fill="#fff"/>
      <path id="Trazado_26-3" data-name="Trazado 26" d="M401.555,21.158h1.711V19.447h-1.711Zm3.89,0h1.711V19.447h-1.711Zm3.888,0h1.712V19.447h-1.712Zm-11.668-3.889h1.712V15.558h-1.712Zm15.558,0h1.712V15.558h-1.712Zm-15.558-3.889h1.712V11.668h-1.712Zm15.558,0h1.712V11.668h-1.712ZM397.666,9.49h1.712V7.779h-1.712Zm15.558,0h1.712V7.779h-1.712ZM397.666,5.6h1.712V3.889h-1.712Zm15.558,0h1.712V3.889h-1.712ZM401.555,1.711h1.711V0h-1.711Zm3.89,0h1.711V0h-1.711Zm3.888,0h1.712V0h-1.712Z" transform="translate(-210.981)" fill="#fff"/>
      <path id="Trazado_27-3" data-name="Trazado 27" d="M447.375,21.158h1.712V19.447h-1.712Zm0-3.889h1.712V15.558h-1.712Zm0-3.889h1.712V11.668h-1.712Zm3.889,0h1.712V11.668h-1.712Zm3.889,0h1.711V11.668h-1.711Zm3.889,0h1.712V11.668h-1.712ZM447.375,9.49h1.712V7.779h-1.712Zm15.557,0h1.712V7.779h-1.712ZM447.375,5.6h1.712V3.889h-1.712Zm15.557,0h1.712V3.889h-1.712ZM447.375,1.711h1.712V0h-1.712Zm3.889,0h1.712V0h-1.712Zm3.889,0h1.711V0h-1.711Zm3.889,0h1.712V0h-1.712Z" transform="translate(-237.354)" fill="#fff"/>
      <path id="Trazado_28-3" data-name="Trazado 28" d="M505.368,21.158h1.712V19.447h-1.712Zm3.889,0h1.711V19.447h-1.711Zm3.889,0h1.711V19.447h-1.711Zm3.889,0h1.712V19.447h-1.712Zm-11.668-3.889h1.712V15.558h-1.712Zm0-3.889h1.712V11.668h-1.712Zm0-3.889h1.712V7.779h-1.712Zm0-3.89h1.712V3.889h-1.712Zm0-3.889h1.712V0h-1.712Z" transform="translate(-268.122)" fill="#fff"/>
      <path id="Trazado_29-3" data-name="Trazado 29" d="M546.791,21.158H548.5V19.447h-1.711Zm3.889,0h1.712V19.447H550.68Zm3.889,0h1.712V19.447H554.57Zm3.889,0h1.711V19.447h-1.711Zm3.889,0h1.712V19.447h-1.712Zm-15.557-3.889H548.5V15.558h-1.711Zm0-3.889H548.5V11.668h-1.711Zm0-3.889H548.5V7.779h-1.711Zm3.889,0h1.712V7.779H550.68Zm3.889,0h1.712V7.779H554.57Zm3.889,0h1.711V7.779h-1.711ZM546.791,5.6H548.5V3.889h-1.711Zm0-3.889H548.5V0h-1.711Zm3.889,0h1.712V0H550.68Zm3.889,0h1.712V0H554.57Zm3.889,0h1.711V0h-1.711Zm3.889,0h1.712V0h-1.712Z" transform="translate(-290.099)" fill="#fff"/>
    </g>
    <g id="Grupo_56" data-name="Grupo 56" transform="translate(384.961 415.956)">
      <path id="Trazado_19-4" data-name="Trazado 19" d="M0,21.158H1.712V19.447H0Zm15.558,0h1.711V19.447H15.558ZM0,17.269H1.712V15.558H0Zm15.558,0h1.711V15.558H15.558ZM0,13.379H1.712V11.668H0Zm11.668,0h1.712V11.668H11.668Zm3.89,0h1.711V11.668H15.558ZM0,9.49H1.712V7.779H0Zm7.779,0H9.49V7.779H7.779Zm7.779,0h1.711V7.779H15.558ZM0,5.6H1.712V3.889H0Zm3.889,0H5.6V3.889H3.889Zm11.668,0h1.711V3.889H15.558ZM0,1.711H1.712V0H0Zm15.558,0h1.711V0H15.558Z" fill="#fff"/>
      <path id="Trazado_20-4" data-name="Trazado 20" d="M49.708,21.158H51.42V19.447H49.708Zm3.889,0h1.711V19.447H53.6Zm3.89,0H59.2V19.447H57.487Zm3.888,0h1.712V19.447H61.376Zm3.89,0h1.712V19.447H65.266ZM49.708,17.269H51.42V15.558H49.708Zm0-3.889H51.42V11.668H49.708Zm0-3.889H51.42V7.779H49.708Zm3.889,0h1.711V7.779H53.6Zm3.89,0H59.2V7.779H57.487Zm3.888,0h1.712V7.779H61.376ZM49.708,5.6H51.42V3.889H49.708Zm0-3.889H51.42V0H49.708Zm3.889,0h1.711V0H53.6Zm3.89,0H59.2V0H57.487Zm3.888,0h1.712V0H61.376Zm3.89,0h1.712V0H65.266Z" transform="translate(-26.372)" fill="#fff"/>
      <path id="Trazado_21-4" data-name="Trazado 21" d="M99.417,21.158h1.712V19.447H99.417Zm15.557,0h1.712V19.447h-1.712ZM99.417,17.269h1.712V15.558H99.417Zm11.668,0H112.8V15.558h-1.712ZM99.417,13.379h1.712V11.668H99.417Zm3.889,0h1.712V11.668h-1.712Zm3.89,0h1.711V11.668H107.2Zm3.888,0H112.8V11.668h-1.712ZM99.417,9.49h1.712V7.779H99.417Zm15.557,0h1.712V7.779h-1.712ZM99.417,5.6h1.712V3.889H99.417Zm15.557,0h1.712V3.889h-1.712ZM99.417,1.711h1.712V0H99.417Zm3.889,0h1.712V0h-1.712Zm3.89,0h1.711V0H107.2Zm3.888,0H112.8V0h-1.712Z" transform="translate(-52.745)" fill="#fff"/>
      <path id="Trazado_22-4" data-name="Trazado 22" d="M149.125,21.158h1.712V19.447h-1.712Zm3.889,0h1.712V19.447h-1.712Zm3.889,0h1.711V19.447H156.9Zm3.889,0H162.5V19.447h-1.711Zm-11.668-3.889h1.712V15.558h-1.712Zm15.557,0h1.712V15.558h-1.712Zm-15.557-3.889h1.712V11.668h-1.712Zm15.557,0h1.712V11.668h-1.712ZM149.125,9.49h1.712V7.779h-1.712Zm15.557,0h1.712V7.779h-1.712ZM149.125,5.6h1.712V3.889h-1.712Zm15.557,0h1.712V3.889h-1.712ZM149.125,1.711h1.712V0h-1.712Zm3.889,0h1.712V0h-1.712Zm3.889,0h1.711V0H156.9Zm3.889,0H162.5V0h-1.711Z" transform="translate(-79.118)" fill="#fff"/>
      <path id="Trazado_23-4" data-name="Trazado 23" d="M206.612,21.158h1.712V19.447h-1.712Zm0-3.889h1.712V15.558h-1.712Zm0-3.889h1.712V11.668h-1.712ZM202.722,9.49h1.712V7.779h-1.712Zm7.779,0h1.711V7.779H210.5ZM198.833,5.6h1.711V3.889h-1.711Zm15.557,0H216.1V3.889H214.39ZM198.833,1.711h1.711V0h-1.711Zm15.557,0H216.1V0H214.39Z" transform="translate(-105.49)" fill="#fff"/>
      <path id="Trazado_24-4" data-name="Trazado 24" d="M298.25,21.158h1.711V19.447H298.25Zm0-3.889h1.711V15.558H298.25Zm0-3.889h1.711V11.668H298.25Zm3.889,0h1.711V11.668h-1.711Zm3.889,0h1.712V11.668h-1.712Zm3.889,0h1.712V11.668h-1.712ZM298.25,9.49h1.711V7.779H298.25Zm15.558,0h1.711V7.779h-1.711ZM298.25,5.6h1.711V3.889H298.25Zm15.558,0h1.711V3.889h-1.711ZM298.25,1.711h1.711V0H298.25Zm3.889,0h1.711V0h-1.711Zm3.889,0h1.712V0h-1.712Zm3.889,0h1.712V0h-1.712Z" transform="translate(-158.236)" fill="#fff"/>
      <path id="Trazado_25-4" data-name="Trazado 25" d="M347.958,21.158h1.712V19.447h-1.712Zm3.889,0h1.711V19.447h-1.711Zm3.889,0h1.712V19.447h-1.712Zm3.889,0h1.712V19.447h-1.712Zm3.89,0h1.711V19.447h-1.711Zm-15.558-3.889h1.712V15.558h-1.712Zm0-3.889h1.712V11.668h-1.712Zm0-3.889h1.712V7.779h-1.712Zm3.889,0h1.711V7.779h-1.711Zm3.889,0h1.712V7.779h-1.712Zm3.889,0h1.712V7.779h-1.712ZM347.958,5.6h1.712V3.889h-1.712Zm0-3.889h1.712V0h-1.712Zm3.889,0h1.711V0h-1.711Zm3.889,0h1.712V0h-1.712Zm3.889,0h1.712V0h-1.712Zm3.89,0h1.711V0h-1.711Z" transform="translate(-184.608)" fill="#fff"/>
      <path id="Trazado_26-4" data-name="Trazado 26" d="M401.555,21.158h1.711V19.447h-1.711Zm3.89,0h1.711V19.447h-1.711Zm3.888,0h1.712V19.447h-1.712Zm-11.668-3.889h1.712V15.558h-1.712Zm15.558,0h1.712V15.558h-1.712Zm-15.558-3.889h1.712V11.668h-1.712Zm15.558,0h1.712V11.668h-1.712ZM397.666,9.49h1.712V7.779h-1.712Zm15.558,0h1.712V7.779h-1.712ZM397.666,5.6h1.712V3.889h-1.712Zm15.558,0h1.712V3.889h-1.712ZM401.555,1.711h1.711V0h-1.711Zm3.89,0h1.711V0h-1.711Zm3.888,0h1.712V0h-1.712Z" transform="translate(-210.981)" fill="#fff"/>
      <path id="Trazado_27-4" data-name="Trazado 27" d="M447.375,21.158h1.712V19.447h-1.712Zm0-3.889h1.712V15.558h-1.712Zm0-3.889h1.712V11.668h-1.712Zm3.889,0h1.712V11.668h-1.712Zm3.889,0h1.711V11.668h-1.711Zm3.889,0h1.712V11.668h-1.712ZM447.375,9.49h1.712V7.779h-1.712Zm15.557,0h1.712V7.779h-1.712ZM447.375,5.6h1.712V3.889h-1.712Zm15.557,0h1.712V3.889h-1.712ZM447.375,1.711h1.712V0h-1.712Zm3.889,0h1.712V0h-1.712Zm3.889,0h1.711V0h-1.711Zm3.889,0h1.712V0h-1.712Z" transform="translate(-237.354)" fill="#fff"/>
      <path id="Trazado_28-4" data-name="Trazado 28" d="M505.368,21.158h1.712V19.447h-1.712Zm3.889,0h1.711V19.447h-1.711Zm3.889,0h1.711V19.447h-1.711Zm3.889,0h1.712V19.447h-1.712Zm-11.668-3.889h1.712V15.558h-1.712Zm0-3.889h1.712V11.668h-1.712Zm0-3.889h1.712V7.779h-1.712Zm0-3.89h1.712V3.889h-1.712Zm0-3.889h1.712V0h-1.712Z" transform="translate(-268.122)" fill="#fff"/>
      <path id="Trazado_29-4" data-name="Trazado 29" d="M546.791,21.158H548.5V19.447h-1.711Zm3.889,0h1.712V19.447H550.68Zm3.889,0h1.712V19.447H554.57Zm3.889,0h1.711V19.447h-1.711Zm3.889,0h1.712V19.447h-1.712Zm-15.557-3.889H548.5V15.558h-1.711Zm0-3.889H548.5V11.668h-1.711Zm0-3.889H548.5V7.779h-1.711Zm3.889,0h1.712V7.779H550.68Zm3.889,0h1.712V7.779H554.57Zm3.889,0h1.711V7.779h-1.711ZM546.791,5.6H548.5V3.889h-1.711Zm0-3.889H548.5V0h-1.711Zm3.889,0h1.712V0H550.68Zm3.889,0h1.712V0H554.57Zm3.889,0h1.711V0h-1.711Zm3.889,0h1.712V0h-1.712Z" transform="translate(-290.099)" fill="#fff"/>
    </g>
    <g id="Grupo_57" data-name="Grupo 57" transform="translate(55 415.956)">
      <path id="Trazado_19-5" data-name="Trazado 19" d="M0,21.158H1.712V19.447H0Zm15.558,0h1.711V19.447H15.558ZM0,17.269H1.712V15.558H0Zm15.558,0h1.711V15.558H15.558ZM0,13.379H1.712V11.668H0Zm11.668,0h1.712V11.668H11.668Zm3.89,0h1.711V11.668H15.558ZM0,9.49H1.712V7.779H0Zm7.779,0H9.49V7.779H7.779Zm7.779,0h1.711V7.779H15.558ZM0,5.6H1.712V3.889H0Zm3.889,0H5.6V3.889H3.889Zm11.668,0h1.711V3.889H15.558ZM0,1.711H1.712V0H0Zm15.558,0h1.711V0H15.558Z" fill="#fff"/>
      <path id="Trazado_20-5" data-name="Trazado 20" d="M49.708,21.158H51.42V19.447H49.708Zm3.889,0h1.711V19.447H53.6Zm3.89,0H59.2V19.447H57.487Zm3.888,0h1.712V19.447H61.376Zm3.89,0h1.712V19.447H65.266ZM49.708,17.269H51.42V15.558H49.708Zm0-3.889H51.42V11.668H49.708Zm0-3.889H51.42V7.779H49.708Zm3.889,0h1.711V7.779H53.6Zm3.89,0H59.2V7.779H57.487Zm3.888,0h1.712V7.779H61.376ZM49.708,5.6H51.42V3.889H49.708Zm0-3.889H51.42V0H49.708Zm3.889,0h1.711V0H53.6Zm3.89,0H59.2V0H57.487Zm3.888,0h1.712V0H61.376Zm3.89,0h1.712V0H65.266Z" transform="translate(-26.372)" fill="#fff"/>
      <path id="Trazado_21-5" data-name="Trazado 21" d="M99.417,21.158h1.712V19.447H99.417Zm15.557,0h1.712V19.447h-1.712ZM99.417,17.269h1.712V15.558H99.417Zm11.668,0H112.8V15.558h-1.712ZM99.417,13.379h1.712V11.668H99.417Zm3.889,0h1.712V11.668h-1.712Zm3.89,0h1.711V11.668H107.2Zm3.888,0H112.8V11.668h-1.712ZM99.417,9.49h1.712V7.779H99.417Zm15.557,0h1.712V7.779h-1.712ZM99.417,5.6h1.712V3.889H99.417Zm15.557,0h1.712V3.889h-1.712ZM99.417,1.711h1.712V0H99.417Zm3.889,0h1.712V0h-1.712Zm3.89,0h1.711V0H107.2Zm3.888,0H112.8V0h-1.712Z" transform="translate(-52.745)" fill="#fff"/>
      <path id="Trazado_22-5" data-name="Trazado 22" d="M149.125,21.158h1.712V19.447h-1.712Zm3.889,0h1.712V19.447h-1.712Zm3.889,0h1.711V19.447H156.9Zm3.889,0H162.5V19.447h-1.711Zm-11.668-3.889h1.712V15.558h-1.712Zm15.557,0h1.712V15.558h-1.712Zm-15.557-3.889h1.712V11.668h-1.712Zm15.557,0h1.712V11.668h-1.712ZM149.125,9.49h1.712V7.779h-1.712Zm15.557,0h1.712V7.779h-1.712ZM149.125,5.6h1.712V3.889h-1.712Zm15.557,0h1.712V3.889h-1.712ZM149.125,1.711h1.712V0h-1.712Zm3.889,0h1.712V0h-1.712Zm3.889,0h1.711V0H156.9Zm3.889,0H162.5V0h-1.711Z" transform="translate(-79.118)" fill="#fff"/>
      <path id="Trazado_23-5" data-name="Trazado 23" d="M206.612,21.158h1.712V19.447h-1.712Zm0-3.889h1.712V15.558h-1.712Zm0-3.889h1.712V11.668h-1.712ZM202.722,9.49h1.712V7.779h-1.712Zm7.779,0h1.711V7.779H210.5ZM198.833,5.6h1.711V3.889h-1.711Zm15.557,0H216.1V3.889H214.39ZM198.833,1.711h1.711V0h-1.711Zm15.557,0H216.1V0H214.39Z" transform="translate(-105.49)" fill="#fff"/>
      <path id="Trazado_24-5" data-name="Trazado 24" d="M298.25,21.158h1.711V19.447H298.25Zm0-3.889h1.711V15.558H298.25Zm0-3.889h1.711V11.668H298.25Zm3.889,0h1.711V11.668h-1.711Zm3.889,0h1.712V11.668h-1.712Zm3.889,0h1.712V11.668h-1.712ZM298.25,9.49h1.711V7.779H298.25Zm15.558,0h1.711V7.779h-1.711ZM298.25,5.6h1.711V3.889H298.25Zm15.558,0h1.711V3.889h-1.711ZM298.25,1.711h1.711V0H298.25Zm3.889,0h1.711V0h-1.711Zm3.889,0h1.712V0h-1.712Zm3.889,0h1.712V0h-1.712Z" transform="translate(-158.236)" fill="#fff"/>
      <path id="Trazado_25-5" data-name="Trazado 25" d="M347.958,21.158h1.712V19.447h-1.712Zm3.889,0h1.711V19.447h-1.711Zm3.889,0h1.712V19.447h-1.712Zm3.889,0h1.712V19.447h-1.712Zm3.89,0h1.711V19.447h-1.711Zm-15.558-3.889h1.712V15.558h-1.712Zm0-3.889h1.712V11.668h-1.712Zm0-3.889h1.712V7.779h-1.712Zm3.889,0h1.711V7.779h-1.711Zm3.889,0h1.712V7.779h-1.712Zm3.889,0h1.712V7.779h-1.712ZM347.958,5.6h1.712V3.889h-1.712Zm0-3.889h1.712V0h-1.712Zm3.889,0h1.711V0h-1.711Zm3.889,0h1.712V0h-1.712Zm3.889,0h1.712V0h-1.712Zm3.89,0h1.711V0h-1.711Z" transform="translate(-184.608)" fill="#fff"/>
      <path id="Trazado_26-5" data-name="Trazado 26" d="M401.555,21.158h1.711V19.447h-1.711Zm3.89,0h1.711V19.447h-1.711Zm3.888,0h1.712V19.447h-1.712Zm-11.668-3.889h1.712V15.558h-1.712Zm15.558,0h1.712V15.558h-1.712Zm-15.558-3.889h1.712V11.668h-1.712Zm15.558,0h1.712V11.668h-1.712ZM397.666,9.49h1.712V7.779h-1.712Zm15.558,0h1.712V7.779h-1.712ZM397.666,5.6h1.712V3.889h-1.712Zm15.558,0h1.712V3.889h-1.712ZM401.555,1.711h1.711V0h-1.711Zm3.89,0h1.711V0h-1.711Zm3.888,0h1.712V0h-1.712Z" transform="translate(-210.981)" fill="#fff"/>
      <path id="Trazado_27-5" data-name="Trazado 27" d="M447.375,21.158h1.712V19.447h-1.712Zm0-3.889h1.712V15.558h-1.712Zm0-3.889h1.712V11.668h-1.712Zm3.889,0h1.712V11.668h-1.712Zm3.889,0h1.711V11.668h-1.711Zm3.889,0h1.712V11.668h-1.712ZM447.375,9.49h1.712V7.779h-1.712Zm15.557,0h1.712V7.779h-1.712ZM447.375,5.6h1.712V3.889h-1.712Zm15.557,0h1.712V3.889h-1.712ZM447.375,1.711h1.712V0h-1.712Zm3.889,0h1.712V0h-1.712Zm3.889,0h1.711V0h-1.711Zm3.889,0h1.712V0h-1.712Z" transform="translate(-237.354)" fill="#fff"/>
      <path id="Trazado_28-5" data-name="Trazado 28" d="M505.368,21.158h1.712V19.447h-1.712Zm3.889,0h1.711V19.447h-1.711Zm3.889,0h1.711V19.447h-1.711Zm3.889,0h1.712V19.447h-1.712Zm-11.668-3.889h1.712V15.558h-1.712Zm0-3.889h1.712V11.668h-1.712Zm0-3.889h1.712V7.779h-1.712Zm0-3.89h1.712V3.889h-1.712Zm0-3.889h1.712V0h-1.712Z" transform="translate(-268.122)" fill="#fff"/>
      <path id="Trazado_29-5" data-name="Trazado 29" d="M546.791,21.158H548.5V19.447h-1.711Zm3.889,0h1.712V19.447H550.68Zm3.889,0h1.712V19.447H554.57Zm3.889,0h1.711V19.447h-1.711Zm3.889,0h1.712V19.447h-1.712Zm-15.557-3.889H548.5V15.558h-1.711Zm0-3.889H548.5V11.668h-1.711Zm0-3.889H548.5V7.779h-1.711Zm3.889,0h1.712V7.779H550.68Zm3.889,0h1.712V7.779H554.57Zm3.889,0h1.711V7.779h-1.711ZM546.791,5.6H548.5V3.889h-1.711Zm0-3.889H548.5V0h-1.711Zm3.889,0h1.712V0H550.68Zm3.889,0h1.712V0H554.57Zm3.889,0h1.711V0h-1.711Zm3.889,0h1.712V0h-1.712Z" transform="translate(-290.099)" fill="#fff"/>
    </g>
  </g>
</svg>
